<?xml version="1.0" encoding="UTF-8"?>
<svg id="Layer_2" data-name="Layer 2" xmlns="http://www.w3.org/2000/svg" viewBox="0 0 128 128">
  <defs>
    <style>
      .cls-1 {
        fill: #fff;
      }
    </style>
  </defs>
  <g>
    <path class="cls-1" d="M119,112.56h-18.58l-10.86-29.55h-.03l-.03-.12-5.55-15.11c-3.14-8.51-4.7-17.43-4.7-26.36s1.5-17.58,4.52-25.97h.23l24.3,67.44,10.68,29.67Z"/>
    <path class="cls-1" d="M20.8,81.04c1,12.91-3.23,30.23-3.35,31.52h-8.45c.64-1.59,11.8-31.52,11.8-31.52Z"/>
    <path class="cls-1" d="M71.25,90.11l8.07,22.45h-18.58l-10.92-29.67h.03l-5.58-15.11c-3.14-8.51-4.73-17.46-4.73-26.41s1.53-17.55,4.55-25.92h.23l12.62,34.9,11.71,32.55,2.58,7.22Z"/>
  </g>
  <path class="cls-1" d="M110.86,23.35c-.57,0-1.1-.1-1.59-.3-.49-.2-.92-.48-1.28-.85-.37-.36-.65-.78-.85-1.26-.2-.48-.3-.99-.3-1.55s.1-1.07.31-1.55c.21-.48.49-.9.86-1.26.37-.36.8-.64,1.29-.85.49-.2,1.03-.3,1.6-.3s1.11.1,1.6.3c.49.2.92.48,1.28.83.36.36.65.77.85,1.25.2.47.3.99.3,1.55s-.1,1.08-.31,1.56c-.21.48-.5.9-.87,1.27-.37.36-.8.64-1.29.85-.49.2-1.02.3-1.59.3ZM110.86,23.02c.52,0,1.01-.1,1.46-.29.45-.19.84-.45,1.18-.78.34-.33.6-.71.79-1.16.19-.44.29-.92.29-1.43s-.09-.99-.28-1.42c-.19-.43-.45-.81-.78-1.14-.33-.33-.72-.58-1.17-.77-.45-.18-.93-.27-1.46-.27s-1.02.09-1.47.28c-.45.19-.85.45-1.18.78-.33.33-.59.72-.78,1.15-.19.44-.28.91-.28,1.42s.09.98.28,1.42c.19.44.45.82.78,1.15.33.33.72.59,1.18.78.45.19.94.28,1.46.28ZM109.32,21.69v-4.59h1.77c.56,0,1,.14,1.32.41.32.27.48.64.48,1.09s-.16.84-.48,1.11c-.32.27-.76.4-1.32.4h-1.32v1.58h-.45ZM109.76,19.73h1.3c.44,0,.79-.1,1.03-.3.24-.2.37-.48.37-.83s-.12-.63-.37-.82c-.24-.2-.59-.3-1.03-.3h-1.3v2.25ZM112.44,21.69l-1.18-1.78h.48l1.18,1.78h-.48Z"/>
</svg>