<?xml version="1.0" encoding="UTF-8"?>
<svg id="Layer_1" xmlns="http://www.w3.org/2000/svg" version="1.1" viewBox="0 0 128 128">
  <!-- Generator: Adobe Illustrator 30.0.0, SVG Export Plug-In . SVG Version: 2.1.1 Build 123)  -->
  <defs>
    <style>
      .st0 {
        fill: #231f20;
      }
    </style>
  </defs>
  <g>
    <g>
      <path d="M10.24,109.89v-13.58h2.04l5.83,9.91h-1.07l5.74-9.91h2.04l.02,13.58h-2.34l-.02-9.83h.5l-4.88,8.28h-1.11l-4.95-8.28h.57v9.83h-2.36Z"/>
      <path d="M27.51,109.89l6-13.65h2.44l6.02,13.65h-2.59l-5.16-12.3h.99l-5.15,12.3h-2.55ZM30.27,106.73l.67-1.99h7.2l.67,1.99h-8.54Z"/>
      <path d="M50.66,109.96c-1.04,0-2-.17-2.87-.5-.87-.34-1.63-.81-2.28-1.43-.65-.62-1.15-1.34-1.51-2.18-.36-.84-.53-1.75-.53-2.74s.18-1.91.53-2.74c.36-.84.86-1.57,1.51-2.18.65-.62,1.42-1.09,2.3-1.43.88-.34,1.84-.5,2.88-.5,1.13,0,2.15.18,3.06.55.91.37,1.67.91,2.3,1.62l-1.56,1.52c-.52-.52-1.08-.91-1.69-1.15-.6-.25-1.27-.37-1.99-.37s-1.35.11-1.94.34c-.6.23-1.11.55-1.54.97-.43.42-.77.91-1,1.49-.24.57-.35,1.2-.35,1.89s.12,1.3.35,1.87c.24.57.57,1.07,1,1.5.43.43.94.75,1.52.98.58.23,1.23.34,1.94.34.66,0,1.3-.1,1.92-.31.62-.21,1.2-.56,1.76-1.06l1.41,1.85c-.7.56-1.51.98-2.43,1.27-.92.29-1.85.43-2.79.43ZM53.54,107.94v-4.99h2.34v5.32l-2.34-.32Z"/>
      <path d="M64.23,109.96c-1.04,0-2.04-.15-2.99-.45-.95-.3-1.71-.68-2.27-1.15l.86-1.92c.53.42,1.19.77,1.98,1.05.79.28,1.59.42,2.42.42.7,0,1.26-.08,1.7-.23.43-.15.75-.36.95-.62.2-.26.3-.56.3-.89,0-.41-.15-.73-.44-.98-.29-.25-.67-.44-1.13-.59-.46-.15-.98-.28-1.54-.41-.57-.13-1.13-.28-1.7-.45-.57-.17-1.08-.39-1.54-.67-.46-.27-.84-.64-1.13-1.1-.29-.46-.44-1.04-.44-1.75s.19-1.39.58-1.99c.39-.6.98-1.09,1.77-1.45.79-.36,1.8-.54,3.02-.54.8,0,1.59.1,2.38.3.79.2,1.47.5,2.06.88l-.78,1.92c-.6-.36-1.21-.62-1.85-.79-.64-.17-1.25-.26-1.83-.26-.69,0-1.24.08-1.67.25-.43.17-.74.38-.93.65-.2.27-.3.57-.3.91,0,.41.14.73.43.98.29.25.66.44,1.12.58.46.14.98.28,1.55.41s1.14.28,1.71.45c.57.17,1.08.38,1.54.65.46.27.84.63,1.12,1.09.29.46.43,1.04.43,1.73s-.19,1.37-.58,1.97c-.39.6-.98,1.09-1.78,1.45-.8.36-1.81.54-3.03.54Z"/>
      <path d="M73.03,109.89v-13.58h2.04l5.83,9.91h-1.07l5.74-9.91h2.04l.02,13.58h-2.34l-.02-9.84h.5l-4.88,8.28h-1.11l-4.95-8.28h.57v9.84h-2.36Z"/>
      <path d="M94.66,107.77h7.53v2.11h-10v-13.58h9.74v2.11h-7.26v9.35ZM94.47,101.96h6.63v2.08h-6.63v-2.08Z"/>
      <path d="M105.9,109.89v-13.58h2.04l8.37,10.46h-1.01v-10.46h2.46v13.58h-2.04l-8.37-10.46h1.01v10.46h-2.46Z"/>
    </g>
    <g>
      <path d="M22.09,118.92v-4.46h1.98c.78,0,1.25.47,1.25,1.14,0,.56-.37.94-.78,1.02.47.07.87.56.87,1.1,0,.71-.47,1.2-1.29,1.2h-2.03ZM22.64,116.39h1.34c.5,0,.77-.31.77-.71s-.27-.72-.77-.72h-1.34v1.44ZM22.64,118.43h1.36c.52,0,.83-.29.83-.77,0-.41-.28-.77-.83-.77h-1.36v1.54Z"/>
      <path d="M29.81,118.92l-1.14-1.77h-.89v1.77h-.55v-4.46h1.79c.82,0,1.4.52,1.4,1.34s-.55,1.24-1.16,1.3l1.2,1.82h-.65ZM28.95,114.96h-1.17v1.7h1.17c.53,0,.89-.35.89-.86s-.36-.85-.89-.85Z"/>
      <path d="M35.43,118.92l-.39-.99h-2.26l-.39.99h-.61l1.79-4.46h.69l1.8,4.46h-.61ZM33.9,114.96l-.97,2.48h1.93l-.96-2.48Z"/>
      <path d="M40.71,118.92l-2.6-3.59v3.59h-.55v-4.46h.57l2.57,3.52v-3.52h.55v4.46h-.53Z"/>
      <path d="M43.22,118.92v-4.46h1.52c1.38,0,2.29.97,2.29,2.23s-.9,2.23-2.29,2.23h-1.52ZM43.78,118.43h.97c1.08,0,1.71-.78,1.71-1.73s-.61-1.74-1.71-1.74h-.97v3.47Z"/>
      <path d="M51.32,116.69c0-1.37,1.01-2.31,2.27-2.31.81,0,1.36.38,1.71.88l-.47.26c-.25-.37-.71-.65-1.24-.65-.96,0-1.7.75-1.7,1.81s.74,1.81,1.7,1.81c.53,0,.99-.27,1.24-.65l.47.26c-.37.51-.91.88-1.72.88-1.26,0-2.27-.94-2.27-2.31Z"/>
      <path d="M58.98,114.39c1.32,0,2.21.99,2.21,2.31s-.9,2.31-2.21,2.31-2.21-.99-2.21-2.31.89-2.31,2.21-2.31ZM58.98,114.88c-1,0-1.64.77-1.64,1.81s.63,1.81,1.64,1.81,1.64-.78,1.64-1.81-.64-1.81-1.64-1.81Z"/>
      <path d="M66.15,118.92l-2.6-3.59v3.59h-.55v-4.46h.57l2.57,3.52v-3.52h.55v4.46h-.53Z"/>
      <path d="M68.72,117.87c.29.33.78.63,1.4.63.8,0,1.05-.43,1.05-.77,0-.53-.54-.68-1.13-.84-.71-.19-1.51-.39-1.51-1.26,0-.74.65-1.24,1.53-1.24.68,0,1.21.23,1.58.62l-.33.41c-.33-.37-.8-.53-1.29-.53-.53,0-.92.29-.92.71,0,.45.51.58,1.08.73.73.19,1.56.42,1.56,1.36,0,.65-.44,1.31-1.64,1.31-.77,0-1.34-.29-1.71-.71l.33-.42Z"/>
      <path d="M73.52,114.46h.55v2.71c0,.82.44,1.33,1.26,1.33s1.26-.51,1.26-1.33v-2.71h.55v2.72c0,1.11-.61,1.82-1.82,1.82s-1.82-.71-1.82-1.81v-2.73Z"/>
      <path d="M79.13,118.92v-4.46h.55v3.96h2.07v.49h-2.63Z"/>
      <path d="M83.91,118.92v-3.96h-1.41v-.49h3.38v.49h-1.42v3.96h-.55Z"/>
      <path d="M90.3,118.92l-.39-.99h-2.26l-.39.99h-.61l1.79-4.46h.69l1.8,4.46h-.61ZM88.78,114.96l-.97,2.48h1.93l-.96-2.48Z"/>
      <path d="M95.59,118.92l-2.6-3.59v3.59h-.55v-4.46h.57l2.57,3.52v-3.52h.55v4.46h-.53Z"/>
      <path d="M99.2,118.92v-3.96h-1.41v-.49h3.38v.49h-1.42v3.96h-.55Z"/>
      <path d="M102.88,117.87c.29.33.78.63,1.4.63.8,0,1.05-.43,1.05-.77,0-.53-.54-.68-1.13-.84-.71-.19-1.51-.39-1.51-1.26,0-.74.65-1.24,1.53-1.24.68,0,1.21.23,1.58.62l-.33.41c-.33-.37-.8-.53-1.29-.53-.53,0-.92.29-.92.71,0,.45.51.58,1.08.73.73.19,1.56.42,1.56,1.36,0,.65-.44,1.31-1.64,1.31-.77,0-1.34-.29-1.71-.71l.33-.42Z"/>
    </g>
    <g>
      <path d="M105.91,82.85h-14.13l-8.26-22.47h-.02l-.02-.09-4.22-11.49c-2.39-6.47-3.57-13.26-3.57-20.04s1.14-13.37,3.44-19.75h.18l18.48,51.29,8.12,22.56Z"/>
      <path d="M31.23,58.88c.76,9.82-2.45,22.99-2.54,23.97h-6.43c.49-1.21,8.97-23.97,8.97-23.97Z"/>
      <path d="M69.6,65.78l6.14,17.07h-14.13l-8.3-22.56h.02l-4.24-11.49c-2.39-6.47-3.59-13.28-3.59-20.09s1.16-13.35,3.46-19.71h.18l9.6,26.54,8.91,24.75,1.96,5.49Z"/>
    </g>
  </g>
  <path class="st0" d="M99.72,15.01c-.44,0-.84-.08-1.21-.23-.37-.15-.7-.37-.98-.64-.28-.28-.5-.59-.65-.96-.15-.36-.23-.75-.23-1.18s.08-.81.24-1.18c.16-.36.38-.68.65-.96.28-.28.61-.49.98-.64.38-.15.78-.23,1.22-.23s.84.08,1.22.23c.38.15.7.36.98.63.28.27.49.59.65.95.15.36.23.75.23,1.18s-.08.82-.24,1.19c-.16.37-.38.69-.66.96-.28.28-.61.49-.98.64-.37.15-.78.23-1.21.23ZM99.72,14.76c.4,0,.76-.07,1.11-.22.34-.14.64-.34.9-.59.26-.25.46-.54.6-.88.15-.34.22-.7.22-1.09s-.07-.75-.21-1.08c-.14-.33-.34-.62-.59-.87-.25-.25-.55-.44-.89-.58-.34-.14-.71-.21-1.11-.21s-.77.07-1.12.21c-.35.14-.65.34-.9.59-.25.25-.45.54-.59.88-.14.33-.21.69-.21,1.08s.07.75.21,1.08c.14.33.34.62.59.88.25.25.55.45.89.59.34.14.71.21,1.11.21ZM98.55,13.75v-3.49h1.34c.42,0,.76.1,1,.31.24.21.37.48.37.83s-.12.64-.37.84c-.24.2-.58.31-1,.31h-1v1.2h-.34ZM98.88,12.26h.99c.34,0,.6-.08.78-.23.19-.15.28-.36.28-.63s-.09-.48-.28-.63c-.19-.15-.45-.23-.78-.23h-.99v1.71ZM100.92,13.75l-.9-1.35h.37l.9,1.35h-.37Z"/>
</svg>